<mxfile host="app.diagrams.net" modified="2023-12-09T13:53:29.561Z" agent="Mozilla/5.0 (Windows NT 10.0; Win64; x64; rv:121.0) Gecko/20100101 Firefox/121.0" version="22.1.7" etag="T438Ab1WYiW_9LxChZo9" type="device">
  <diagram id="CuUFcw4_6TG7edhSnXMD" name="Page-1">
    <mxGraphModel dx="1509" dy="955" grid="1" gridSize="10" guides="1" tooltips="1" connect="1" arrows="1" fold="1" page="0" pageScale="1" pageWidth="850" pageHeight="1100" math="0" shadow="0">
      <root>
        <mxCell id="0" />
        <mxCell id="1" parent="0" />
        <mxCell id="qWjDi-F0lc5AA_NIjwa4-29" value="" style="rounded=1;whiteSpace=wrap;html=1;" vertex="1" parent="1">
          <mxGeometry x="130" y="210" width="1300" height="680" as="geometry" />
        </mxCell>
        <mxCell id="qWjDi-F0lc5AA_NIjwa4-30" style="edgeStyle=none;html=1;entryX=0;entryY=0.5;entryDx=0;entryDy=0;fontSize=18;" edge="1" parent="1" source="qWjDi-F0lc5AA_NIjwa4-31" target="qWjDi-F0lc5AA_NIjwa4-35">
          <mxGeometry relative="1" as="geometry" />
        </mxCell>
        <mxCell id="qWjDi-F0lc5AA_NIjwa4-31" value="&lt;b&gt;&lt;font style=&quot;font-size: 17px;&quot;&gt;Camera&lt;/font&gt;&lt;/b&gt;" style="rounded=1;whiteSpace=wrap;html=1;" vertex="1" parent="1">
          <mxGeometry x="187.5" y="420" width="110" height="75" as="geometry" />
        </mxCell>
        <mxCell id="qWjDi-F0lc5AA_NIjwa4-32" style="edgeStyle=orthogonalEdgeStyle;html=1;entryX=-0.018;entryY=0.694;entryDx=0;entryDy=0;entryPerimeter=0;fontSize=18;" edge="1" parent="1" source="qWjDi-F0lc5AA_NIjwa4-33" target="qWjDi-F0lc5AA_NIjwa4-42">
          <mxGeometry relative="1" as="geometry">
            <Array as="points">
              <mxPoint x="750" y="590" />
            </Array>
          </mxGeometry>
        </mxCell>
        <mxCell id="qWjDi-F0lc5AA_NIjwa4-33" value="&lt;b&gt;&lt;font style=&quot;font-size: 14px;&quot;&gt;SENSORS&lt;/font&gt;&lt;br&gt;&lt;br&gt;&lt;font style=&quot;font-size: 13px;&quot;&gt;&lt;font style=&quot;font-size: 13px;&quot;&gt;LiDAR&lt;/font&gt;&amp;nbsp;&lt;/font&gt;&lt;br&gt;Gyroscope&lt;br&gt;Accelerometer&lt;/b&gt;" style="rounded=1;whiteSpace=wrap;html=1;" vertex="1" parent="1">
          <mxGeometry x="187.5" y="560" width="135" height="105" as="geometry" />
        </mxCell>
        <mxCell id="qWjDi-F0lc5AA_NIjwa4-34" style="edgeStyle=none;html=1;entryX=0;entryY=0.5;entryDx=0;entryDy=0;fontSize=18;" edge="1" parent="1" source="qWjDi-F0lc5AA_NIjwa4-35" target="qWjDi-F0lc5AA_NIjwa4-37">
          <mxGeometry relative="1" as="geometry" />
        </mxCell>
        <mxCell id="qWjDi-F0lc5AA_NIjwa4-35" value="&lt;b&gt;&lt;font style=&quot;font-size: 18px;&quot;&gt;Preprocessing&lt;/font&gt;&lt;/b&gt;" style="rounded=1;whiteSpace=wrap;html=1;fontSize=13;" vertex="1" parent="1">
          <mxGeometry x="347.5" y="405" width="145" height="110" as="geometry" />
        </mxCell>
        <mxCell id="qWjDi-F0lc5AA_NIjwa4-36" style="edgeStyle=orthogonalEdgeStyle;html=1;entryX=0.002;entryY=0.412;entryDx=0;entryDy=0;entryPerimeter=0;fontSize=18;" edge="1" parent="1" source="qWjDi-F0lc5AA_NIjwa4-37" target="qWjDi-F0lc5AA_NIjwa4-42">
          <mxGeometry relative="1" as="geometry" />
        </mxCell>
        <mxCell id="qWjDi-F0lc5AA_NIjwa4-37" value="&lt;b style=&quot;font-size: 14px;&quot;&gt;Visual Features Extraction&lt;br&gt;&lt;br&gt;(ORB, SIFT, or SURF)&lt;/b&gt;" style="rounded=1;whiteSpace=wrap;html=1;fontSize=13;" vertex="1" parent="1">
          <mxGeometry x="532.5" y="405" width="120" height="110" as="geometry" />
        </mxCell>
        <mxCell id="qWjDi-F0lc5AA_NIjwa4-38" value="" style="rounded=1;whiteSpace=wrap;html=1;fontSize=13;align=center;" vertex="1" parent="1">
          <mxGeometry x="942.5" y="370" width="430" height="305" as="geometry" />
        </mxCell>
        <mxCell id="qWjDi-F0lc5AA_NIjwa4-39" value="&lt;font style=&quot;font-size: 18px;&quot;&gt;&lt;b&gt;SERVER&lt;/b&gt;&lt;/font&gt;" style="text;strokeColor=none;align=center;fillColor=none;html=1;verticalAlign=middle;whiteSpace=wrap;rounded=0;fontSize=15;" vertex="1" parent="1">
          <mxGeometry x="1092.5" y="390" width="110" height="30" as="geometry" />
        </mxCell>
        <mxCell id="qWjDi-F0lc5AA_NIjwa4-40" value="&lt;b&gt;&lt;font style=&quot;font-size: 22px;&quot;&gt;VSLAM&lt;/font&gt;&lt;/b&gt;" style="rounded=1;whiteSpace=wrap;html=1;fontSize=18;" vertex="1" parent="1">
          <mxGeometry x="962.5" y="480" width="150" height="110" as="geometry" />
        </mxCell>
        <mxCell id="qWjDi-F0lc5AA_NIjwa4-41" style="html=1;entryX=0;entryY=0.5;entryDx=0;entryDy=0;fontSize=18;" edge="1" parent="1" source="qWjDi-F0lc5AA_NIjwa4-42" target="qWjDi-F0lc5AA_NIjwa4-40">
          <mxGeometry relative="1" as="geometry" />
        </mxCell>
        <mxCell id="qWjDi-F0lc5AA_NIjwa4-42" value="Sensor Fusion" style="rounded=1;whiteSpace=wrap;html=1;fontSize=22;" vertex="1" parent="1">
          <mxGeometry x="752.5" y="465" width="120" height="140" as="geometry" />
        </mxCell>
        <mxCell id="qWjDi-F0lc5AA_NIjwa4-43" value="&lt;b&gt;Path Planning&lt;br&gt;&lt;/b&gt;" style="rounded=1;whiteSpace=wrap;html=1;fontSize=18;" vertex="1" parent="1">
          <mxGeometry x="1202.5" y="480" width="150" height="110" as="geometry" />
        </mxCell>
        <mxCell id="qWjDi-F0lc5AA_NIjwa4-44" value="" style="shape=flexArrow;endArrow=classic;html=1;rounded=0;exitX=1;exitY=0.5;exitDx=0;exitDy=0;entryX=0;entryY=0.5;entryDx=0;entryDy=0;" edge="1" parent="1" source="qWjDi-F0lc5AA_NIjwa4-40" target="qWjDi-F0lc5AA_NIjwa4-43">
          <mxGeometry width="50" height="50" relative="1" as="geometry">
            <mxPoint x="762.5" y="600" as="sourcePoint" />
            <mxPoint x="812.5" y="550" as="targetPoint" />
          </mxGeometry>
        </mxCell>
        <mxCell id="qWjDi-F0lc5AA_NIjwa4-45" value="&lt;b&gt;Anything outside the server block is the mobile&lt;/b&gt; side" style="text;html=1;strokeColor=none;fillColor=none;align=center;verticalAlign=middle;whiteSpace=wrap;rounded=0;" vertex="1" parent="1">
          <mxGeometry x="578.75" y="260" width="402.5" height="60" as="geometry" />
        </mxCell>
        <mxCell id="qWjDi-F0lc5AA_NIjwa4-46" value="&lt;b&gt;&lt;font style=&quot;font-size: 18px;&quot;&gt;Path and direction commands&lt;/font&gt;&lt;/b&gt;" style="rounded=1;whiteSpace=wrap;html=1;fontSize=13;align=center;" vertex="1" parent="1">
          <mxGeometry x="532.5" y="700" width="150" height="130" as="geometry" />
        </mxCell>
        <mxCell id="qWjDi-F0lc5AA_NIjwa4-47" style="edgeStyle=orthogonalEdgeStyle;rounded=0;orthogonalLoop=1;jettySize=auto;html=1;exitX=0.5;exitY=1;exitDx=0;exitDy=0;entryX=1.02;entryY=0.559;entryDx=0;entryDy=0;entryPerimeter=0;" edge="1" parent="1" source="qWjDi-F0lc5AA_NIjwa4-43" target="qWjDi-F0lc5AA_NIjwa4-46">
          <mxGeometry relative="1" as="geometry">
            <Array as="points">
              <mxPoint x="1278" y="773" />
            </Array>
          </mxGeometry>
        </mxCell>
        <mxCell id="qWjDi-F0lc5AA_NIjwa4-48" value="&lt;b&gt;&lt;font style=&quot;font-size: 28px;&quot;&gt;Navigation&lt;/font&gt;&lt;/b&gt;" style="text;html=1;strokeColor=none;fillColor=none;align=center;verticalAlign=middle;whiteSpace=wrap;rounded=0;" vertex="1" parent="1">
          <mxGeometry x="572.5" y="240" width="390" height="40" as="geometry" />
        </mxCell>
      </root>
    </mxGraphModel>
  </diagram>
</mxfile>
